<svg xmlns="http://www.w3.org/2000/svg" width="24" height="24" viewBox="0 0 24 24" fill="none" stroke="currentColor" stroke-width="2" stroke-linecap="round" stroke-linejoin="round">
  <path d="M3 11a3 3 0 0 1 3-3h12a3 3 0 0 1 3 3v4a3 3 0 0 1-3 3H6a3 3 0 0 1-3-3v-4z"/>
  <path d="M9 18v-2a2 2 0 0 1 2-2h2a2 2 0 0 1 2 2v2"/>
  <circle cx="7.5" cy="12.5" r="1.5" fill="currentColor"/>
  <circle cx="16.5" cy="12.5" r="1.5" fill="currentColor"/>
  <path d="M7 8V6a2 2 0 0 1 2-2h6a2 2 0 0 1 2 2v2"/>
</svg>
